IKResults
version=1
nRows=17
nColumns=40
inDegrees=yes

Units are S.I. units (second, meters, Newtons, ...)
Angles are in degrees.

endheader
time	pelvis_tilt	pelvis_list	pelvis_rotation	pelvis_tx	pelvis_ty	pelvis_tz	hip_flexion_r	hip_adduction_r	hip_rotation_r	knee_angle_r	knee_angle_r_beta	ankle_angle_r	subtalar_angle_r	mtp_angle_r	hip_flexion_l	hip_adduction_l	hip_rotation_l	knee_angle_l	knee_angle_l_beta	ankle_angle_l	subtalar_angle_l	mtp_angle_l	lumbar_extension	lumbar_bending	lumbar_rotation	arm_flex_r	arm_add_r	arm_rot_r	elbow_flex_r	pro_sup_r	wrist_flex_r	wrist_dev_r	arm_flex_l	arm_add_l	arm_rot_l	elbow_flex_l	pro_sup_l	wrist_flex_l	wrist_dev_l
      0.00000000	     16.43637697	     -1.26843353	     -5.48713189	     -1.15528716	      0.94309621	      0.96156160	      3.25469499	     -3.93342775	     -5.75146796	    -48.65911007	     -0.84926168	      5.83310927	    -15.76435406	     15.63593380	    -18.97987588	     -4.56000345	     15.89569065	    -13.15892110	     -0.22966650	     12.65523585	      2.38164649	     -4.32900310	    -22.80681409	     -2.15044873	     -2.28992318	    -14.58095611	    -12.68188428	      5.50192914	     24.29135112	     89.95437384	      0.00000000	      0.00000000	     10.38999783	      9.30602707	     12.45705470	     26.00301674	     89.95437384	      0.00000000	      0.00000000
      0.01000000	     16.18600521	     -1.45000255	     -5.01159251	     -1.14660011	      0.94252740	      0.96115731	      4.15373184	     -3.66060329	     -6.49493682	    -46.60541355	     -0.81341792	      6.15987475	    -15.82729051	     15.56613551	    -19.37104543	     -4.27516852	     15.35220747	    -13.02093841	     -0.22725825	     12.97921450	      2.27986162	     -4.35642391	    -22.70825798	     -1.71932479	     -2.75338859	    -14.77173678	    -12.51048072	      5.30084298	     23.59385461	     89.95437384	      0.00000000	      0.00000000	     11.19186754	      9.40110567	     12.30405026	     27.12462041	     89.95437384	      0.00000000	      0.00000000
      0.02000000	     15.66904963	     -1.23775460	     -4.99174752	     -1.13781728	      0.94114368	      0.96104379	      5.64056560	     -3.95342003	     -7.28251296	    -44.88518218	     -0.78339421	      6.37353846	    -15.61602257	     15.32262090	    -19.31986784	     -4.48746874	     15.51694186	    -13.14427857	     -0.22941094	     13.10987706	      2.28320477	     -4.29394693	    -22.24055904	     -1.80571553	     -2.77304090	    -15.33089866	    -12.47357840	      5.33015099	     23.39429272	     89.95437384	      0.00000000	      0.00000000	     12.04600036	      9.40281681	     12.20385274	     28.13574812	     89.95437384	      0.00000000	      0.00000000
      0.03000000	     15.65358947	     -1.68647718	     -3.97888478	     -1.12888882	      0.94092472	      0.96061505	      5.82692567	     -3.36156798	     -8.66366803	    -42.19824694	     -0.73649835	      6.37355249	    -15.34848406	     15.34023443	    -19.98194513	     -3.73067961	     14.38109404	    -13.07379126	     -0.22818070	     13.69778514	      2.28159285	     -4.38387152	    -22.41377343	     -1.01574283	     -3.72643914	    -15.32544266	    -12.17111041	      4.93279233	     22.49559316	     89.95437384	      0.00000000	      0.00000000	     12.54472336	      9.71495853	     11.74990040	     29.70734739	     89.95437384	      0.00000000	      0.00000000
      0.04000000	     15.13428570	     -1.45884277	     -3.98642297	     -1.12025847	      0.93938980	      0.96073753	      7.19775078	     -3.63866538	     -9.47248743	    -40.34141861	     -0.70409058	      6.37901469	    -14.92212856	     15.10823010	    -19.91941092	     -3.95332855	     14.50533106	    -13.20550966	     -0.23047962	     13.83657603	      2.32770926	     -4.32944757	    -21.98368084	     -1.15711426	     -3.72969067	    -15.81702513	    -12.11240969	      4.91953737	     22.38754121	     89.95437384	      0.00000000	      0.00000000	     13.36882598	      9.72207848	     11.65577938	     30.80011665	     89.95437384	      0.00000000	      0.00000000
      0.05000000	     15.44111192	     -1.94578963	     -2.97674405	     -1.11112632	      0.93949755	      0.96025334	      6.78339848	     -3.10122283	    -11.20181728	    -37.26144558	     -0.65033491	      5.79959521	    -14.01868770	     14.80489342	    -21.03473419	     -3.23749512	     12.99946782	    -12.92856290	     -0.22564599	     14.26431104	      3.16512169	     -4.56080040	    -22.50702277	     -0.32725951	     -4.53850100	    -15.93418601	    -11.85992651	      4.31154879	     21.82911036	     89.95437384	      0.00000000	      0.00000000	     13.85230831	      9.98108733	     11.10787655	     32.43207055	     89.95437384	      0.00000000	      0.00000000
      0.06000000	     15.11805759	     -2.01221951	     -2.49908052	     -1.10239027	      0.93834086	      0.96023107	      7.48644041	     -3.02702302	    -12.55770656	    -34.85881154	     -0.60840103	      5.37364285	    -12.87953702	     14.34619200	    -21.13000557	     -2.98297559	     12.44774304	    -13.23404010	     -0.23097757	     14.69196303	      3.48295435	     -4.62163358	    -22.32395901	     -0.06308564	     -4.99554828	    -16.07027563	    -11.67536721	      4.08763275	     21.32073814	     89.95437384	      0.00000000	      0.00000000	     14.39075414	     10.14279973	     10.89079126	     33.87596723	     89.95437384	      0.00000000	      0.00000000
      0.07000000	     14.88069159	     -2.08922040	     -2.16228580	     -1.09338115	      0.93724050	      0.96036788	      7.98041760	     -2.90697031	    -13.83662687	    -32.28097419	     -0.56340929	      4.87385552	    -11.46901507	     13.83109279	    -21.41781910	     -2.79025399	     11.94058269	    -13.36104172	     -0.23319417	     15.05011159	      3.77645435	     -4.69538031	    -22.20999209	      0.16898444	     -5.27916675	    -16.24867837	    -11.54157662	      3.91174643	     20.88085059	     89.95437384	      0.00000000	      0.00000000	     14.90709050	     10.25153294	     10.66641936	     35.27986200	     89.95437384	      0.00000000	      0.00000000
      0.08000000	     14.25158197	     -1.80547014	     -2.29453977	     -1.08469511	      0.93527473	      0.96085454	      9.24693066	     -3.10727738	    -14.50765906	    -30.28718723	     -0.52861114	      4.41831718	    -10.48002701	     13.54915811	    -21.18514783	     -3.09784584	     11.93462388	    -13.60233108	     -0.23740546	     15.23357067	      3.77525821	     -4.65264737	    -21.67220881	     -0.09326502	     -5.19694016	    -16.58270439	    -11.48088466	      3.89686294	     20.79155623	     89.95437384	      0.00000000	      0.00000000	     15.54263938	     10.30205971	     10.51167624	     36.38626378	     89.95437384	      0.00000000	      0.00000000
      0.09000000	     14.44455920	     -2.33049883	     -1.41718906	     -1.07545166	      0.93486246	      0.96090743	      8.79555542	     -2.50113400	    -16.46388706	    -27.19011576	     -0.47455704	      3.52712986	     -7.90612636	     12.65303185	    -21.89959742	     -2.22193088	     10.93572217	    -13.86804876	     -0.24204311	     15.75083131	      4.37636643	     -4.77697236	    -22.03980341	      0.72539459	     -5.85481988	    -16.56448726	    -11.28221112	      3.45767811	     20.27771526	     89.95437384	      0.00000000	      0.00000000	     15.94198388	     10.51504296	     10.21729978	     37.91990791	     89.95437384	      0.00000000	      0.00000000
      0.10000000	     14.35533876	     -2.43315715	     -0.97592072	     -1.06604852	      0.93374507	      0.96109176	      8.96341613	     -2.35357562	    -17.99683549	    -24.72246922	     -0.43148849	      2.97671201	     -5.38190197	     10.99647944	    -22.40594508	     -1.95735804	     10.22213057	    -13.90413764	     -0.24267298	     16.00210773	      4.73504477	     -5.02597569	    -22.04301406	      1.00819932	     -6.15135504	    -16.78547524	    -11.17504766	      3.27952088	     20.09444593	     89.95437384	      0.00000000	      0.00000000	     16.41013336	     10.64391083	      9.84539569	     39.18402515	     89.95437384	      0.00000000	      0.00000000
      0.11000000	     14.15189234	     -2.55966834	     -0.64844804	     -1.05667993	      0.93235894	      0.96151462	      9.28893751	     -2.06924537	    -19.20894638	    -22.42212506	     -0.39133991	      2.69373188	     -3.35787843	      9.66808500	    -22.66278525	     -1.65642914	      9.75904894	    -14.26087710	     -0.24889926	     16.32269874	      5.00047421	     -5.17939023	    -21.92395500	      1.27652065	     -6.38069468	    -16.89148930	    -11.08081346	      3.12755283	     19.80649658	     89.95437384	      0.00000000	      0.00000000	     16.81242439	     10.74494609	      9.62734229	     40.42957621	     89.95437384	      0.00000000	      0.00000000
      0.12000000	     14.09131627	     -2.49869884	     -0.20052886	     -1.04691966	      0.93101202	      0.96166454	      9.51967665	     -2.24814716	    -21.41260551	    -20.47068841	     -0.35728091	      1.60607674	     -1.01352970	     -3.29522804	    -23.22639776	     -1.54257484	      8.92291299	    -14.26325536	     -0.24894077	     16.42007081	      5.62610832	     -7.08448979	    -21.88342532	      1.39884169	     -6.72952636	    -17.10345314	    -10.98697688	      2.96725672	     19.70688986	     89.95437384	      0.00000000	      0.00000000	     17.21973989	     10.83609682	      9.37453135	     41.52379658	     89.95437384	      0.00000000	      0.00000000
      0.13000000	     13.76830186	     -2.59656647	     -0.05137696	     -1.03749038	      0.92931468	      0.96278020	     10.06560229	     -1.78245643	    -21.75052089	    -18.66974880	     -0.32584859	      2.00211957	      0.39779131	     -3.51270089	    -23.32387864	     -1.26457168	      8.73803592	    -14.69126845	     -0.25641101	     16.76752289	      5.63505106	     -7.07111316	    -21.61006528	      1.51850395	     -6.84546904	    -17.13180166	    -10.86977582	      2.89964055	     19.42593517	     89.95437384	      0.00000000	      0.00000000	     17.47468235	     10.99798407	      9.27829587	     42.75294937	     89.95437384	      0.00000000	      0.00000000
      0.14000000	     13.97980775	     -2.98101345	      0.63973950	     -1.02732408	      0.92840045	      0.96314998	      9.83097066	     -1.25798500	    -23.52128017	    -17.00318040	     -0.29676148	      2.22847969	      2.90309522	     -4.10682343	    -23.99995022	     -0.44322927	      8.51810238	    -15.15394315	     -0.26448620	     16.94395368	      5.38519141	     -7.18598289	    -21.84535115	      2.14218016	     -7.27125711	    -17.22769962	    -10.80181674	      2.74906757	     19.28277789	     89.95437384	      0.00000000	      0.00000000	     17.74271696	     11.01996127	      9.22665010	     43.88331467	     89.95437384	      0.00000000	      0.00000000
      0.15000000	     13.91381525	     -3.06413710	      1.10236391	     -1.01711685	      0.92685250	      0.96365818	     10.21049743	     -1.27663051	    -25.48165465	    -16.26180386	     -0.28382202	      2.73380207	      6.70548926	     -6.22357897	    -24.39947351	      0.00434446	      8.44884772	    -15.53308111	     -0.27110341	     16.97598594	      4.62238948	     -7.64476007	    -21.69275764	      2.36339883	     -7.61421989	    -17.35309326	    -10.75230734	      2.80288879	     19.17468726	     89.95437384	      0.00000000	      0.00000000	     17.95861747	     11.13570511	      8.96456353	     44.82816122	     89.95437384	      0.00000000	      0.00000000
      0.16000000	     13.81542568	     -3.27002598	      1.47918200	     -1.00691349	      0.92550922	      0.96453706	     10.37907356	     -0.75282681	    -25.74097779	    -15.06578721	     -0.26294759	      2.88800302	      7.89315664	     -6.59673858	    -24.78079268	      0.49531354	      8.04507303	    -15.93764518	     -0.27816438	     17.12392568	      4.69076419	     -7.69160176	    -21.56952340	      2.67463067	     -7.85592978	    -17.33643582	    -10.67170373	      2.71425179	     18.93261738	     89.95437384	      0.00000000	      0.00000000	     18.08537535	     11.17534604	      8.97147359	     45.79986846	     89.95437384	      0.00000000	      0.00000000
